<svg width="49" height="39" viewBox="0 0 49 39" fill="none" xmlns="http://www.w3.org/2000/svg">
<path d="M39.2 0H9.8C4.3855 0 0 4.29133 0 9.58957V28.7687C0 34.0669 4.3855 38.3583 9.8 38.3583H39.2C44.6145 38.3583 49 34.0669 49 28.7687V9.58957C49 4.29133 44.6145 0 39.2 0ZM34.643 23.4225C34.055 23.902 33.2465 24.0938 32.487 23.902L5.2675 17.3811C6.0025 15.631 7.742 14.3844 9.8 14.3844H39.2C40.8415 14.3844 42.287 15.1995 43.1935 16.3982L34.643 23.4225ZM9.8 4.79479H39.2C41.895 4.79479 44.1 6.95244 44.1 9.58957V10.9081C42.6545 10.093 40.9885 9.58957 39.2 9.58957H9.8C8.0115 9.58957 6.3455 10.093 4.9 10.9081V9.58957C4.9 6.95244 7.105 4.79479 9.8 4.79479Z" fill="#A6BBF2"/>
</svg>
