<svg width="20" height="20" viewBox="0 0 20 20" fill="none" xmlns="http://www.w3.org/2000/svg">
<g clip-path="url(#clip0_25_53)">
<path d="M15 7V5C15 2.2 12.8 0 10 0C7.2 0 5 2.2 5 5V7C3.3 7 2 8.3 2 10V17C2 18.7 3.3 20 5 20H15C16.7 20 18 18.7 18 17V10C18 8.3 16.7 7 15 7ZM7 5C7 3.3 8.3 2 10 2C11.7 2 13 3.3 13 5V7H7V5ZM11 15C11 15.6 10.6 16 10 16C9.4 16 9 15.6 9 15V12C9 11.4 9.4 11 10 11C10.6 11 11 11.4 11 12V15Z" fill="black"/>
</g>
<defs>
<clipPath id="clip0_25_53">
<rect width="20" height="20" fill="white"/>
</clipPath>
</defs>
</svg>
