<svg width="49" height="39" viewBox="0 0 49 39" fill="none" xmlns="http://www.w3.org/2000/svg">
<path d="M39.2 0H9.8C4.3855 0 0 4.36312 0 9.75V29.25C0 34.6369 4.3855 39 9.8 39H39.2C44.6145 39 49 34.6369 49 29.25V9.75C49 4.36312 44.6145 0 39.2 0ZM34.643 23.8144C34.055 24.3019 33.2465 24.4969 32.487 24.3019L5.2675 17.6719C6.0025 15.8925 7.742 14.625 9.8 14.625H39.2C40.8415 14.625 42.287 15.4538 43.1935 16.6725L34.643 23.8144ZM9.8 4.875H39.2C41.895 4.875 44.1 7.06875 44.1 9.75V11.0906C42.6545 10.2619 40.9885 9.75 39.2 9.75H9.8C8.0115 9.75 6.3455 10.2619 4.9 11.0906V9.75C4.9 7.06875 7.105 4.875 9.8 4.875Z" fill="#EEEEEE"/>
</svg>
