<svg width="49" height="39" viewBox="0 0 49 39" fill="none" xmlns="http://www.w3.org/2000/svg">
<path d="M39.2001 0H9.80002C4.38551 0 0 4.29134 0 9.58959V28.7688C0 34.067 4.38551 38.3584 9.80002 38.3584H39.2001C44.6146 38.3584 49.0001 34.067 49.0001 28.7688V9.58959C49.0001 4.29134 44.6146 0 39.2001 0ZM34.6431 23.4226C34.0551 23.9021 33.2466 24.0939 32.4871 23.9021L5.26751 17.3811C6.00251 15.631 7.74202 14.3844 9.80002 14.3844H39.2001C40.8416 14.3844 42.2871 15.1995 43.1936 16.3982L34.6431 23.4226ZM9.80002 4.7948H39.2001C41.8951 4.7948 44.1001 6.95246 44.1001 9.58959V10.9082C42.6546 10.093 40.9886 9.58959 39.2001 9.58959H9.80002C8.01152 9.58959 6.34551 10.093 4.90001 10.9082V9.58959C4.90001 6.95246 7.10501 4.7948 9.80002 4.7948Z" fill="#3AAFA9"/>
</svg>
