<svg width="19" height="18" viewBox="0 0 19 18" fill="none" xmlns="http://www.w3.org/2000/svg">
<path d="M8.02222 12.9201L15.4639 6.01959L13.9861 4.64927L8.02222 10.1795L5.01389 7.3899L3.53611 8.76021L8.02222 12.9201ZM2.11111 17.6183C1.53056 17.6183 1.03339 17.4268 0.619611 17.0438C0.206537 16.6601 0 16.1991 0 15.6607V1.95759C0 1.41925 0.206537 0.95824 0.619611 0.574552C1.03339 0.191517 1.53056 0 2.11111 0H16.8889C17.4694 0 17.9666 0.191517 18.3804 0.574552C18.7935 0.95824 19 1.41925 19 1.95759V15.6607C19 16.1991 18.7935 16.6601 18.3804 17.0438C17.9666 17.4268 17.4694 17.6183 16.8889 17.6183H2.11111Z" fill="#3AAFA9"/>
</svg>
