<svg width="363" height="341" viewBox="0 0 363 341" fill="none" xmlns="http://www.w3.org/2000/svg">
<g filter="url(#filter0_i_373_460)">
<rect width="363" height="341" fill="white"/>
<path d="M183.5 98C162.357 98 141.593 103.143 123.326 112.905C105.06 122.667 89.9445 136.698 79.5236 153.566C69.1027 170.434 63.7491 189.535 64.009 208.92C64.269 228.305 70.1333 247.279 81.0035 263.907C91.8736 280.535 107.36 294.221 125.883 303.568C144.406 312.915 165.302 317.588 186.439 317.112C207.575 316.635 228.195 311.025 246.194 300.854C264.194 290.683 278.928 276.316 288.893 259.218L242.784 236.623C237.178 246.24 228.89 254.322 218.766 260.043C208.641 265.764 197.042 268.92 185.153 269.188C173.264 269.456 161.51 266.827 151.091 261.57C140.672 256.312 131.96 248.614 125.846 239.261C119.731 229.907 116.433 219.234 116.286 208.33C116.14 197.426 119.152 186.682 125.013 177.194C130.875 167.705 139.377 159.813 149.652 154.322C159.927 148.831 171.607 145.938 183.5 145.938V98Z" fill="#4E9269" stroke="white"/>
<path d="M288.893 259.218C298.624 242.523 303.472 223.802 302.964 204.878C302.456 185.954 296.611 167.474 285.997 151.238C275.383 135.002 260.362 121.564 242.4 112.234C224.437 102.904 204.145 98.0001 183.5 98.0001V145.938C195.113 145.938 206.527 148.696 216.631 153.945C226.735 159.193 235.184 166.751 241.154 175.884C247.125 185.017 250.413 195.412 250.698 206.057C250.984 216.701 248.257 227.232 242.784 236.623L288.893 259.218Z" fill="#A6BBF2" stroke="white"/>
</g>
<defs>
<filter id="filter0_i_373_460" x="0" y="0" width="363" height="345" filterUnits="userSpaceOnUse" color-interpolation-filters="sRGB">
<feFlood flood-opacity="0" result="BackgroundImageFix"/>
<feBlend mode="normal" in="SourceGraphic" in2="BackgroundImageFix" result="shape"/>
<feColorMatrix in="SourceAlpha" type="matrix" values="0 0 0 0 0 0 0 0 0 0 0 0 0 0 0 0 0 0 127 0" result="hardAlpha"/>
<feOffset dy="4"/>
<feGaussianBlur stdDeviation="2"/>
<feComposite in2="hardAlpha" operator="arithmetic" k2="-1" k3="1"/>
<feColorMatrix type="matrix" values="0 0 0 0 0 0 0 0 0 0 0 0 0 0 0 0 0 0 0.25 0"/>
<feBlend mode="normal" in2="shape" result="effect1_innerShadow_373_460"/>
</filter>
</defs>
</svg>
