<svg width="24" height="24" viewBox="0 0 24 24" fill="none" xmlns="http://www.w3.org/2000/svg">
<g clip-path="url(#clip0_308_397)">
<path d="M19.3 8.925L15.05 4.725L16.45 3.325C16.8333 2.94167 17.3043 2.75 17.863 2.75C18.4217 2.75 18.8923 2.94167 19.275 3.325L20.675 4.725C21.0583 5.10833 21.2583 5.571 21.275 6.113C21.2917 6.655 21.1083 7.11733 20.725 7.5L19.3 8.925ZM17.85 10.4L7.25 21H3V16.75L13.6 6.15L17.85 10.4Z" fill="white"/>
<g clip-path="url(#clip1_308_397)">
<path d="M16.3 11.925L12.05 7.725L13.45 6.325C13.8333 5.94167 14.3043 5.75 14.863 5.75C15.4217 5.75 15.8923 5.94167 16.275 6.325L17.675 7.725C18.0583 8.10833 18.2583 8.571 18.275 9.113C18.2917 9.655 18.1083 10.1173 17.725 10.5L16.3 11.925ZM14.85 13.4L4.25 24H0V19.75L10.6 9.15L14.85 13.4Z" fill="#4E9269"/>
<path d="M19.3 8.925L15.05 4.725L16.45 3.325C16.8333 2.94167 17.3043 2.75 17.863 2.75C18.4217 2.75 18.8923 2.94167 19.275 3.325L20.675 4.725C21.0583 5.10833 21.2583 5.571 21.275 6.113C21.2917 6.655 21.1083 7.11733 20.725 7.5L19.3 8.925ZM17.85 10.4L7.25 21H3V16.75L13.6 6.15L17.85 10.4Z" fill="#4E9269"/>
<path d="M18.2792 10.322L14.9146 7.34696L16.0229 6.35529C16.3264 6.08376 16.6993 5.948 17.1415 5.948C17.5833 5.948 17.9559 6.08376 18.2594 6.35529L19.3677 7.34696C19.6712 7.61848 19.8295 7.94621 19.8427 8.33012C19.8559 8.71357 19.7108 9.04105 19.4073 9.31258L18.2792 10.322ZM17.1313 11.3667L8.73958 18.8751H5.375V15.8647L13.7667 8.35633L17.1313 11.3667Z" fill="#4E9269"/>
</g>
</g>
<defs>
<clipPath id="clip0_308_397">
<rect width="24" height="24" fill="white"/>
</clipPath>
<clipPath id="clip1_308_397">
<rect width="24" height="24" fill="white" transform="translate(-3 3)"/>
</clipPath>
</defs>
</svg>
