<svg width="24" height="21" viewBox="0 0 24 21" fill="none" xmlns="http://www.w3.org/2000/svg">
<g opacity="0.65">
<path d="M21.9371 9.15875H5.0115C5.00855 9.15875 5.0056 9.15265 5.00855 9.15265L11.3929 2.81157C11.9092 2.2994 11.9269 1.44884 11.4283 0.91534C10.9327 0.381836 10.1095 0.363544 9.59325 0.878757L0.901795 9.50934C0.648073 9.76237 0.50351 10.113 0.50351 10.4757C0.50351 10.8416 0.648073 11.1891 0.901795 11.4421L9.64045 20.1215C9.89123 20.3715 10.2158 20.4965 10.5403 20.4965C10.8825 20.4965 11.2218 20.3593 11.4755 20.0849C11.9712 19.5514 11.9564 18.7009 11.4401 18.1887L5.05576 11.8476C5.05281 11.8446 5.05576 11.8415 5.05871 11.8415H21.9666C22.657 11.8415 23.2205 11.2836 23.2618 10.5824C23.306 9.80505 22.6894 9.15875 21.9371 9.15875Z" fill="black" stroke="black"/>
</g>
</svg>
